<mxfile host="65bd71144e" pages="2">
    <diagram name="ユーザ側" id="b520641d-4fe3-3701-9064-5fc419738815">
        <mxGraphModel dx="1089" dy="562" grid="1" gridSize="10" guides="1" tooltips="1" connect="1" arrows="1" fold="1" page="1" pageScale="1" pageWidth="1100" pageHeight="850" background="none" math="0" shadow="0">
            <root>
                <mxCell id="0"/>
                <mxCell id="1" parent="0"/>
                <mxCell id="tDWq7TmDwjiiPGYqks4p-116" value="&lt;font style=&quot;font-size: 20px;&quot;&gt;クローズドコンテンツの画面フロー（ユーザ側）&lt;/font&gt;" style="text;html=1;align=left;verticalAlign=middle;resizable=0;points=[];autosize=1;strokeColor=none;fillColor=none;" parent="1" vertex="1">
                    <mxGeometry x="30" y="40" width="460" height="40" as="geometry"/>
                </mxCell>
                <mxCell id="tDWq7TmDwjiiPGYqks4p-117" value="対外コンテンツからリンク遷移" style="whiteSpace=wrap;html=1;" parent="1" vertex="1">
                    <mxGeometry x="280" y="120" width="120" height="40" as="geometry"/>
                </mxCell>
                <mxCell id="tDWq7TmDwjiiPGYqks4p-124" value="直リンク" style="whiteSpace=wrap;html=1;" parent="1" vertex="1">
                    <mxGeometry x="120" y="120" width="120" height="40" as="geometry"/>
                </mxCell>
                <mxCell id="tDWq7TmDwjiiPGYqks4p-130" value="【TOP(ログイン)】&lt;br&gt;トピック一覧表示" style="whiteSpace=wrap;html=1;" parent="1" vertex="1">
                    <mxGeometry x="120" y="320" width="120" height="40" as="geometry"/>
                </mxCell>
                <mxCell id="VPxTjBy3y0VzWbjlfLkC-1" value="" style="edgeStyle=none;orthogonalLoop=1;jettySize=auto;html=1;rounded=0;exitX=0.5;exitY=1;exitDx=0;exitDy=0;entryX=0.5;entryY=0;entryDx=0;entryDy=0;" parent="1" source="tDWq7TmDwjiiPGYqks4p-124" target="VPxTjBy3y0VzWbjlfLkC-3" edge="1">
                    <mxGeometry width="100" relative="1" as="geometry">
                        <mxPoint x="180" y="205" as="sourcePoint"/>
                        <mxPoint x="180" y="200" as="targetPoint"/>
                    </mxGeometry>
                </mxCell>
                <mxCell id="VPxTjBy3y0VzWbjlfLkC-2" value="" style="edgeStyle=none;orthogonalLoop=1;jettySize=auto;html=1;rounded=0;exitX=0.5;exitY=1;exitDx=0;exitDy=0;" parent="1" source="tDWq7TmDwjiiPGYqks4p-117" edge="1">
                    <mxGeometry width="100" relative="1" as="geometry">
                        <mxPoint x="190" y="170" as="sourcePoint"/>
                        <mxPoint x="180" y="180" as="targetPoint"/>
                        <Array as="points">
                            <mxPoint x="340" y="180"/>
                        </Array>
                    </mxGeometry>
                </mxCell>
                <mxCell id="VPxTjBy3y0VzWbjlfLkC-3" value="ログイン&lt;br&gt;している" style="rhombus;whiteSpace=wrap;html=1;fontSize=12;" parent="1" vertex="1">
                    <mxGeometry x="140" y="200" width="80" height="80" as="geometry"/>
                </mxCell>
                <mxCell id="VPxTjBy3y0VzWbjlfLkC-4" value="" style="edgeStyle=none;orthogonalLoop=1;jettySize=auto;html=1;rounded=0;exitX=0.5;exitY=1;exitDx=0;exitDy=0;entryX=0.5;entryY=0;entryDx=0;entryDy=0;" parent="1" source="VPxTjBy3y0VzWbjlfLkC-3" target="tDWq7TmDwjiiPGYqks4p-130" edge="1">
                    <mxGeometry width="100" relative="1" as="geometry">
                        <mxPoint x="180" y="295" as="sourcePoint"/>
                        <mxPoint x="200" y="300" as="targetPoint"/>
                    </mxGeometry>
                </mxCell>
                <mxCell id="VPxTjBy3y0VzWbjlfLkC-5" value="【TOP(非ログイン)】&lt;br style=&quot;font-size: 11px;&quot;&gt;公開トピック一覧表示" style="whiteSpace=wrap;html=1;fontSize=11;" parent="1" vertex="1">
                    <mxGeometry x="1120" y="320" width="120" height="40" as="geometry"/>
                </mxCell>
                <mxCell id="VPxTjBy3y0VzWbjlfLkC-6" value="" style="edgeStyle=none;orthogonalLoop=1;jettySize=auto;html=1;rounded=0;exitX=1;exitY=0.5;exitDx=0;exitDy=0;entryX=0.5;entryY=0;entryDx=0;entryDy=0;" parent="1" source="VPxTjBy3y0VzWbjlfLkC-3" target="VPxTjBy3y0VzWbjlfLkC-5" edge="1">
                    <mxGeometry width="100" relative="1" as="geometry">
                        <mxPoint x="339.55" y="265" as="sourcePoint"/>
                        <mxPoint x="339.55" y="305" as="targetPoint"/>
                        <Array as="points">
                            <mxPoint x="1180" y="240"/>
                        </Array>
                    </mxGeometry>
                </mxCell>
                <mxCell id="VPxTjBy3y0VzWbjlfLkC-7" value="&lt;font style=&quot;font-size: 10px;&quot;&gt;Yes&lt;/font&gt;" style="text;html=1;align=center;verticalAlign=middle;resizable=0;points=[];autosize=1;strokeColor=none;fillColor=none;fontSize=10;" parent="1" vertex="1">
                    <mxGeometry x="140" y="280" width="40" height="30" as="geometry"/>
                </mxCell>
                <mxCell id="VPxTjBy3y0VzWbjlfLkC-8" value="&lt;font style=&quot;font-size: 10px;&quot;&gt;No&lt;/font&gt;" style="text;html=1;align=center;verticalAlign=middle;resizable=0;points=[];autosize=1;strokeColor=none;fillColor=none;fontSize=10;" parent="1" vertex="1">
                    <mxGeometry x="220" y="210" width="40" height="30" as="geometry"/>
                </mxCell>
                <mxCell id="tDWq7TmDwjiiPGYqks4p-127" value="&lt;font style=&quot;font-size: 10px;&quot;&gt;初めてだと&lt;br&gt;何ができるかわからない&lt;br&gt;&lt;/font&gt;" style="ellipse;shape=cloud;whiteSpace=wrap;html=1;fillColor=#f5f5f5;fontColor=#333333;strokeColor=#666666;" parent="1" vertex="1">
                    <mxGeometry x="1060" y="458" width="170" height="50" as="geometry"/>
                </mxCell>
                <mxCell id="tDWq7TmDwjiiPGYqks4p-128" value="&lt;font style=&quot;font-size: 9px;&quot;&gt;チュートリアル&lt;/font&gt;" style="ellipse;whiteSpace=wrap;html=1;fillColor=#fff2cc;strokeColor=#d6b656;" parent="1" vertex="1">
                    <mxGeometry x="1180" y="458" width="80" height="20" as="geometry"/>
                </mxCell>
                <mxCell id="VPxTjBy3y0VzWbjlfLkC-10" value="" style="edgeStyle=none;orthogonalLoop=1;jettySize=auto;html=1;rounded=0;exitX=0.5;exitY=1;exitDx=0;exitDy=0;entryX=0.5;entryY=0;entryDx=0;entryDy=0;" parent="1" source="tDWq7TmDwjiiPGYqks4p-130" target="VPxTjBy3y0VzWbjlfLkC-11" edge="1">
                    <mxGeometry width="100" relative="1" as="geometry">
                        <mxPoint x="180" y="365" as="sourcePoint"/>
                        <mxPoint x="180" y="390" as="targetPoint"/>
                    </mxGeometry>
                </mxCell>
                <mxCell id="VPxTjBy3y0VzWbjlfLkC-11" value="トピック新規作成&lt;br&gt;（入力）" style="whiteSpace=wrap;html=1;" parent="1" vertex="1">
                    <mxGeometry x="120" y="419" width="120" height="40" as="geometry"/>
                </mxCell>
                <mxCell id="VPxTjBy3y0VzWbjlfLkC-12" value="" style="edgeStyle=none;orthogonalLoop=1;jettySize=auto;html=1;rounded=0;exitX=0.5;exitY=1;exitDx=0;exitDy=0;entryX=0.5;entryY=0;entryDx=0;entryDy=0;" parent="1" source="VPxTjBy3y0VzWbjlfLkC-5" target="VPxTjBy3y0VzWbjlfLkC-56" edge="1">
                    <mxGeometry width="100" relative="1" as="geometry">
                        <mxPoint x="1179.55" y="365" as="sourcePoint"/>
                        <mxPoint x="1180" y="400" as="targetPoint"/>
                    </mxGeometry>
                </mxCell>
                <mxCell id="VPxTjBy3y0VzWbjlfLkC-13" value="" style="edgeStyle=none;orthogonalLoop=1;jettySize=auto;html=1;rounded=0;entryX=0.5;entryY=0;entryDx=0;entryDy=0;" parent="1" target="VPxTjBy3y0VzWbjlfLkC-15" edge="1">
                    <mxGeometry width="100" relative="1" as="geometry">
                        <mxPoint x="1180" y="380" as="sourcePoint"/>
                        <mxPoint x="1580" y="473" as="targetPoint"/>
                        <Array as="points">
                            <mxPoint x="1540" y="380"/>
                        </Array>
                    </mxGeometry>
                </mxCell>
                <mxCell id="VPxTjBy3y0VzWbjlfLkC-14" value="ログイン画面" style="whiteSpace=wrap;html=1;" parent="1" vertex="1">
                    <mxGeometry x="1277" y="418" width="120" height="40" as="geometry"/>
                </mxCell>
                <mxCell id="VPxTjBy3y0VzWbjlfLkC-15" value="新規会員登録画面&lt;br&gt;（入力）" style="whiteSpace=wrap;html=1;" parent="1" vertex="1">
                    <mxGeometry x="1480" y="418" width="120" height="40" as="geometry"/>
                </mxCell>
                <mxCell id="VPxTjBy3y0VzWbjlfLkC-18" value="A" style="ellipse;whiteSpace=wrap;html=1;aspect=fixed;fontSize=16;" parent="1" vertex="1">
                    <mxGeometry x="1317" y="606" width="40" height="40" as="geometry"/>
                </mxCell>
                <mxCell id="VPxTjBy3y0VzWbjlfLkC-20" value="A" style="ellipse;whiteSpace=wrap;html=1;aspect=fixed;fontSize=16;" parent="1" vertex="1">
                    <mxGeometry x="300" y="278" width="40" height="40" as="geometry"/>
                </mxCell>
                <mxCell id="VPxTjBy3y0VzWbjlfLkC-21" value="" style="edgeStyle=none;orthogonalLoop=1;jettySize=auto;html=1;rounded=0;exitX=0;exitY=0.5;exitDx=0;exitDy=0;entryX=1.105;entryY=0.6;entryDx=0;entryDy=0;entryPerimeter=0;" parent="1" source="VPxTjBy3y0VzWbjlfLkC-20" target="VPxTjBy3y0VzWbjlfLkC-7" edge="1">
                    <mxGeometry width="100" relative="1" as="geometry">
                        <mxPoint x="280" y="315" as="sourcePoint"/>
                        <mxPoint x="280" y="355" as="targetPoint"/>
                    </mxGeometry>
                </mxCell>
                <mxCell id="VPxTjBy3y0VzWbjlfLkC-23" value="" style="edgeStyle=none;orthogonalLoop=1;jettySize=auto;html=1;rounded=0;entryX=0.5;entryY=0;entryDx=0;entryDy=0;" parent="1" target="VPxTjBy3y0VzWbjlfLkC-14" edge="1">
                    <mxGeometry width="100" relative="1" as="geometry">
                        <mxPoint x="1337" y="380" as="sourcePoint"/>
                        <mxPoint x="1499.78" y="423" as="targetPoint"/>
                    </mxGeometry>
                </mxCell>
                <mxCell id="VPxTjBy3y0VzWbjlfLkC-25" value="会員情報登録画面&lt;br&gt;（確認）" style="whiteSpace=wrap;html=1;" parent="1" vertex="1">
                    <mxGeometry x="1480" y="498" width="120" height="40" as="geometry"/>
                </mxCell>
                <mxCell id="VPxTjBy3y0VzWbjlfLkC-26" value="" style="edgeStyle=none;orthogonalLoop=1;jettySize=auto;html=1;rounded=0;exitX=0.5;exitY=1;exitDx=0;exitDy=0;entryX=0.5;entryY=0;entryDx=0;entryDy=0;" parent="1" source="VPxTjBy3y0VzWbjlfLkC-15" target="VPxTjBy3y0VzWbjlfLkC-25" edge="1">
                    <mxGeometry width="100" relative="1" as="geometry">
                        <mxPoint x="1539" y="468" as="sourcePoint"/>
                        <mxPoint x="1539" y="508" as="targetPoint"/>
                    </mxGeometry>
                </mxCell>
                <mxCell id="VPxTjBy3y0VzWbjlfLkC-27" value="会員情報確認画面&lt;br&gt;（完了）" style="whiteSpace=wrap;html=1;" parent="1" vertex="1">
                    <mxGeometry x="1480" y="578" width="120" height="40" as="geometry"/>
                </mxCell>
                <mxCell id="VPxTjBy3y0VzWbjlfLkC-28" value="" style="edgeStyle=none;orthogonalLoop=1;jettySize=auto;html=1;rounded=0;exitX=0.5;exitY=1;exitDx=0;exitDy=0;entryX=0.5;entryY=0;entryDx=0;entryDy=0;" parent="1" source="VPxTjBy3y0VzWbjlfLkC-25" target="VPxTjBy3y0VzWbjlfLkC-27" edge="1">
                    <mxGeometry width="100" relative="1" as="geometry">
                        <mxPoint x="1550" y="548" as="sourcePoint"/>
                        <mxPoint x="1550" y="588" as="targetPoint"/>
                    </mxGeometry>
                </mxCell>
                <mxCell id="VPxTjBy3y0VzWbjlfLkC-29" value="" style="edgeStyle=none;orthogonalLoop=1;jettySize=auto;html=1;rounded=0;exitX=0.5;exitY=1;exitDx=0;exitDy=0;entryX=0.5;entryY=0;entryDx=0;entryDy=0;" parent="1" source="VPxTjBy3y0VzWbjlfLkC-27" target="VPxTjBy3y0VzWbjlfLkC-34" edge="1">
                    <mxGeometry width="100" relative="1" as="geometry">
                        <mxPoint x="1540" y="628" as="sourcePoint"/>
                        <mxPoint x="1540" y="658" as="targetPoint"/>
                    </mxGeometry>
                </mxCell>
                <mxCell id="VPxTjBy3y0VzWbjlfLkC-33" value="" style="edgeStyle=none;orthogonalLoop=1;jettySize=auto;html=1;rounded=0;entryX=0.5;entryY=0;entryDx=0;entryDy=0;" parent="1" target="VPxTjBy3y0VzWbjlfLkC-37" edge="1">
                    <mxGeometry width="100" relative="1" as="geometry">
                        <mxPoint x="1540" y="640" as="sourcePoint"/>
                        <mxPoint x="1720" y="658" as="targetPoint"/>
                        <Array as="points">
                            <mxPoint x="1721" y="640"/>
                        </Array>
                    </mxGeometry>
                </mxCell>
                <mxCell id="VPxTjBy3y0VzWbjlfLkC-34" value="ログイン画面" style="whiteSpace=wrap;html=1;" parent="1" vertex="1">
                    <mxGeometry x="1480" y="669" width="120" height="40" as="geometry"/>
                </mxCell>
                <mxCell id="VPxTjBy3y0VzWbjlfLkC-35" value="" style="edgeStyle=none;orthogonalLoop=1;jettySize=auto;html=1;rounded=0;exitX=0.5;exitY=1;exitDx=0;exitDy=0;entryX=0.5;entryY=0;entryDx=0;entryDy=0;" parent="1" source="VPxTjBy3y0VzWbjlfLkC-34" target="McMhKuvaxXRwuFVOmlw5-12" edge="1">
                    <mxGeometry width="100" relative="1" as="geometry">
                        <mxPoint x="1539.55" y="719" as="sourcePoint"/>
                        <mxPoint x="1540" y="749" as="targetPoint"/>
                    </mxGeometry>
                </mxCell>
                <mxCell id="VPxTjBy3y0VzWbjlfLkC-36" value="A" style="ellipse;whiteSpace=wrap;html=1;aspect=fixed;fontSize=16;" parent="1" vertex="1">
                    <mxGeometry x="1520" y="863" width="40" height="40" as="geometry"/>
                </mxCell>
                <mxCell id="VPxTjBy3y0VzWbjlfLkC-37" value="B" style="ellipse;whiteSpace=wrap;html=1;aspect=fixed;fontSize=16;" parent="1" vertex="1">
                    <mxGeometry x="1701" y="658" width="40" height="40" as="geometry"/>
                </mxCell>
                <mxCell id="VPxTjBy3y0VzWbjlfLkC-38" value="B" style="ellipse;whiteSpace=wrap;html=1;aspect=fixed;fontSize=16;" parent="1" vertex="1">
                    <mxGeometry x="1280" y="255" width="40" height="40" as="geometry"/>
                </mxCell>
                <mxCell id="VPxTjBy3y0VzWbjlfLkC-39" value="" style="edgeStyle=none;orthogonalLoop=1;jettySize=auto;html=1;rounded=0;exitX=0;exitY=0.5;exitDx=0;exitDy=0;" parent="1" source="VPxTjBy3y0VzWbjlfLkC-38" edge="1">
                    <mxGeometry width="100" relative="1" as="geometry">
                        <mxPoint x="1266" y="274.63" as="sourcePoint"/>
                        <mxPoint x="1180" y="275" as="targetPoint"/>
                    </mxGeometry>
                </mxCell>
                <mxCell id="VPxTjBy3y0VzWbjlfLkC-41" value="IIMS活動の&lt;br&gt;アーカイブTOP" style="whiteSpace=wrap;html=1;" parent="1" vertex="1">
                    <mxGeometry x="599" y="419" width="120" height="40" as="geometry"/>
                </mxCell>
                <mxCell id="VPxTjBy3y0VzWbjlfLkC-42" value="各アカウントページ&lt;br&gt;(プロフィールページ)" style="whiteSpace=wrap;html=1;" parent="1" vertex="1">
                    <mxGeometry x="759" y="419" width="120" height="40" as="geometry"/>
                </mxCell>
                <mxCell id="VPxTjBy3y0VzWbjlfLkC-46" value="トピック編集&lt;br&gt;（入力）" style="whiteSpace=wrap;html=1;" parent="1" vertex="1">
                    <mxGeometry x="280" y="419" width="120" height="40" as="geometry"/>
                </mxCell>
                <mxCell id="VPxTjBy3y0VzWbjlfLkC-47" value="自アカウント&lt;br&gt;編集/設定など" style="whiteSpace=wrap;html=1;" parent="1" vertex="1">
                    <mxGeometry x="920" y="419" width="120" height="40" as="geometry"/>
                </mxCell>
                <mxCell id="VPxTjBy3y0VzWbjlfLkC-50" value="A" style="ellipse;whiteSpace=wrap;html=1;aspect=fixed;fontSize=16;" parent="1" vertex="1">
                    <mxGeometry x="160" y="499" width="40" height="40" as="geometry"/>
                </mxCell>
                <mxCell id="VPxTjBy3y0VzWbjlfLkC-52" value="" style="edgeStyle=none;orthogonalLoop=1;jettySize=auto;html=1;rounded=0;entryX=0.5;entryY=0;entryDx=0;entryDy=0;exitX=0.5;exitY=1;exitDx=0;exitDy=0;" parent="1" source="VPxTjBy3y0VzWbjlfLkC-11" target="VPxTjBy3y0VzWbjlfLkC-50" edge="1">
                    <mxGeometry width="100" relative="1" as="geometry">
                        <mxPoint x="160" y="460" as="sourcePoint"/>
                        <mxPoint x="230" y="511" as="targetPoint"/>
                    </mxGeometry>
                </mxCell>
                <mxCell id="VPxTjBy3y0VzWbjlfLkC-55" value="" style="edgeStyle=none;orthogonalLoop=1;jettySize=auto;html=1;rounded=0;exitX=0.5;exitY=1;exitDx=0;exitDy=0;" parent="1" source="EPOYZKPjePexzVJCoGdz-1" edge="1">
                    <mxGeometry width="100" relative="1" as="geometry">
                        <mxPoint x="360" y="480" as="sourcePoint"/>
                        <mxPoint x="180" y="481" as="targetPoint"/>
                        <Array as="points">
                            <mxPoint x="500" y="480"/>
                        </Array>
                    </mxGeometry>
                </mxCell>
                <mxCell id="VPxTjBy3y0VzWbjlfLkC-56" value="アプリ説明を表示" style="whiteSpace=wrap;html=1;" parent="1" vertex="1">
                    <mxGeometry x="1120" y="418" width="120" height="40" as="geometry"/>
                </mxCell>
                <mxCell id="VPxTjBy3y0VzWbjlfLkC-57" value="カテゴリー毎に&lt;br&gt;コンテンツ表示" style="whiteSpace=wrap;html=1;" parent="1" vertex="1">
                    <mxGeometry x="599" y="499" width="120" height="40" as="geometry"/>
                </mxCell>
                <mxCell id="VPxTjBy3y0VzWbjlfLkC-58" value="" style="edgeStyle=none;orthogonalLoop=1;jettySize=auto;html=1;rounded=0;exitX=0.5;exitY=1;exitDx=0;exitDy=0;entryX=0.5;entryY=0;entryDx=0;entryDy=0;" parent="1" source="VPxTjBy3y0VzWbjlfLkC-41" target="VPxTjBy3y0VzWbjlfLkC-57" edge="1">
                    <mxGeometry width="100" relative="1" as="geometry">
                        <mxPoint x="658.5" y="464" as="sourcePoint"/>
                        <mxPoint x="669" y="489" as="targetPoint"/>
                    </mxGeometry>
                </mxCell>
                <mxCell id="VPxTjBy3y0VzWbjlfLkC-59" value="" style="edgeStyle=none;orthogonalLoop=1;jettySize=auto;html=1;rounded=0;entryX=0.5;entryY=0;entryDx=0;entryDy=0;" parent="1" target="VPxTjBy3y0VzWbjlfLkC-47" edge="1">
                    <mxGeometry width="100" relative="1" as="geometry">
                        <mxPoint x="180" y="380" as="sourcePoint"/>
                        <mxPoint x="270" y="410" as="targetPoint"/>
                        <Array as="points">
                            <mxPoint x="980" y="380"/>
                        </Array>
                    </mxGeometry>
                </mxCell>
                <mxCell id="VPxTjBy3y0VzWbjlfLkC-60" value="" style="edgeStyle=none;orthogonalLoop=1;jettySize=auto;html=1;rounded=0;entryX=0.5;entryY=0;entryDx=0;entryDy=0;" parent="1" target="VPxTjBy3y0VzWbjlfLkC-42" edge="1">
                    <mxGeometry width="100" relative="1" as="geometry">
                        <mxPoint x="819" y="380" as="sourcePoint"/>
                        <mxPoint x="839" y="425" as="targetPoint"/>
                    </mxGeometry>
                </mxCell>
                <mxCell id="VPxTjBy3y0VzWbjlfLkC-61" value="" style="edgeStyle=none;orthogonalLoop=1;jettySize=auto;html=1;rounded=0;entryX=0.5;entryY=0;entryDx=0;entryDy=0;" parent="1" target="VPxTjBy3y0VzWbjlfLkC-41" edge="1">
                    <mxGeometry width="100" relative="1" as="geometry">
                        <mxPoint x="658.71" y="380" as="sourcePoint"/>
                        <mxPoint x="658.71" y="419" as="targetPoint"/>
                    </mxGeometry>
                </mxCell>
                <mxCell id="VPxTjBy3y0VzWbjlfLkC-62" value="" style="edgeStyle=none;orthogonalLoop=1;jettySize=auto;html=1;rounded=0;entryX=0.5;entryY=0;entryDx=0;entryDy=0;" parent="1" target="VPxTjBy3y0VzWbjlfLkC-46" edge="1">
                    <mxGeometry width="100" relative="1" as="geometry">
                        <mxPoint x="340" y="380" as="sourcePoint"/>
                        <mxPoint x="350.28999999999996" y="429" as="targetPoint"/>
                    </mxGeometry>
                </mxCell>
                <mxCell id="McMhKuvaxXRwuFVOmlw5-1" value="【TOP(ログイン)】&lt;br&gt;トピック一覧へ" style="text;html=1;align=center;verticalAlign=middle;resizable=0;points=[];autosize=1;strokeColor=none;fillColor=none;fontSize=10;" parent="1" vertex="1">
                    <mxGeometry x="125" y="534" width="110" height="40" as="geometry"/>
                </mxCell>
                <mxCell id="McMhKuvaxXRwuFVOmlw5-3" value="【TOP(ログイン)】&lt;br&gt;トピック一覧へ" style="text;html=1;align=center;verticalAlign=middle;resizable=0;points=[];autosize=1;strokeColor=none;fillColor=none;fontSize=10;" parent="1" vertex="1">
                    <mxGeometry x="1282" y="647" width="110" height="40" as="geometry"/>
                </mxCell>
                <mxCell id="McMhKuvaxXRwuFVOmlw5-4" value="【TOP(ログイン)】&lt;br&gt;トピック一覧へ" style="text;html=1;align=center;verticalAlign=middle;resizable=0;points=[];autosize=1;strokeColor=none;fillColor=none;fontSize=10;" parent="1" vertex="1">
                    <mxGeometry x="1480" y="903" width="110" height="40" as="geometry"/>
                </mxCell>
                <mxCell id="McMhKuvaxXRwuFVOmlw5-5" value="【TOP(非ログイン)】&lt;br&gt;トピック一覧へ" style="text;html=1;align=center;verticalAlign=middle;resizable=0;points=[];autosize=1;strokeColor=none;fillColor=none;fontSize=10;" parent="1" vertex="1">
                    <mxGeometry x="1661" y="698" width="120" height="40" as="geometry"/>
                </mxCell>
                <mxCell id="McMhKuvaxXRwuFVOmlw5-6" value="ログイン&lt;br&gt;成功" style="rhombus;whiteSpace=wrap;html=1;fontSize=12;" parent="1" vertex="1">
                    <mxGeometry x="1297" y="491" width="80" height="80" as="geometry"/>
                </mxCell>
                <mxCell id="McMhKuvaxXRwuFVOmlw5-7" value="&lt;font style=&quot;font-size: 10px;&quot;&gt;Yes&lt;/font&gt;" style="text;html=1;align=center;verticalAlign=middle;resizable=0;points=[];autosize=1;strokeColor=none;fillColor=none;fontSize=10;" parent="1" vertex="1">
                    <mxGeometry x="1297" y="571" width="40" height="30" as="geometry"/>
                </mxCell>
                <mxCell id="McMhKuvaxXRwuFVOmlw5-8" value="&lt;font style=&quot;font-size: 10px;&quot;&gt;No&lt;/font&gt;" style="text;html=1;align=center;verticalAlign=middle;resizable=0;points=[];autosize=1;strokeColor=none;fillColor=none;fontSize=10;" parent="1" vertex="1">
                    <mxGeometry x="1377" y="499" width="40" height="30" as="geometry"/>
                </mxCell>
                <mxCell id="McMhKuvaxXRwuFVOmlw5-9" value="" style="edgeStyle=none;orthogonalLoop=1;jettySize=auto;html=1;rounded=0;exitX=0.5;exitY=1;exitDx=0;exitDy=0;entryX=0.5;entryY=0;entryDx=0;entryDy=0;" parent="1" source="VPxTjBy3y0VzWbjlfLkC-14" target="McMhKuvaxXRwuFVOmlw5-6" edge="1">
                    <mxGeometry width="100" relative="1" as="geometry">
                        <mxPoint x="1337" y="458" as="sourcePoint"/>
                        <mxPoint x="1337" y="490" as="targetPoint"/>
                    </mxGeometry>
                </mxCell>
                <mxCell id="McMhKuvaxXRwuFVOmlw5-10" value="" style="edgeStyle=none;orthogonalLoop=1;jettySize=auto;html=1;rounded=0;exitX=0.5;exitY=1;exitDx=0;exitDy=0;entryX=0.5;entryY=0;entryDx=0;entryDy=0;" parent="1" source="McMhKuvaxXRwuFVOmlw5-6" target="VPxTjBy3y0VzWbjlfLkC-18" edge="1">
                    <mxGeometry width="100" relative="1" as="geometry">
                        <mxPoint x="1337" y="574" as="sourcePoint"/>
                        <mxPoint x="1337" y="607" as="targetPoint"/>
                    </mxGeometry>
                </mxCell>
                <mxCell id="McMhKuvaxXRwuFVOmlw5-11" value="" style="edgeStyle=none;orthogonalLoop=1;jettySize=auto;html=1;rounded=0;exitX=1;exitY=0.5;exitDx=0;exitDy=0;" parent="1" source="McMhKuvaxXRwuFVOmlw5-6" edge="1">
                    <mxGeometry width="100" relative="1" as="geometry">
                        <mxPoint x="1390" y="550" as="sourcePoint"/>
                        <mxPoint x="1337" y="400" as="targetPoint"/>
                        <Array as="points">
                            <mxPoint x="1440" y="531"/>
                            <mxPoint x="1440" y="400"/>
                        </Array>
                    </mxGeometry>
                </mxCell>
                <mxCell id="McMhKuvaxXRwuFVOmlw5-12" value="ログイン&lt;br&gt;成功" style="rhombus;whiteSpace=wrap;html=1;fontSize=12;" parent="1" vertex="1">
                    <mxGeometry x="1500" y="749" width="80" height="80" as="geometry"/>
                </mxCell>
                <mxCell id="McMhKuvaxXRwuFVOmlw5-13" value="&lt;font style=&quot;font-size: 10px;&quot;&gt;Yes&lt;/font&gt;" style="text;html=1;align=center;verticalAlign=middle;resizable=0;points=[];autosize=1;strokeColor=none;fillColor=none;fontSize=10;" parent="1" vertex="1">
                    <mxGeometry x="1500" y="829" width="40" height="30" as="geometry"/>
                </mxCell>
                <mxCell id="McMhKuvaxXRwuFVOmlw5-14" value="&lt;font style=&quot;font-size: 10px;&quot;&gt;No&lt;/font&gt;" style="text;html=1;align=center;verticalAlign=middle;resizable=0;points=[];autosize=1;strokeColor=none;fillColor=none;fontSize=10;" parent="1" vertex="1">
                    <mxGeometry x="1580" y="757" width="40" height="30" as="geometry"/>
                </mxCell>
                <mxCell id="McMhKuvaxXRwuFVOmlw5-15" value="" style="edgeStyle=none;orthogonalLoop=1;jettySize=auto;html=1;rounded=0;exitX=0.5;exitY=1;exitDx=0;exitDy=0;entryX=0.5;entryY=0;entryDx=0;entryDy=0;" parent="1" source="McMhKuvaxXRwuFVOmlw5-12" target="VPxTjBy3y0VzWbjlfLkC-36" edge="1">
                    <mxGeometry width="100" relative="1" as="geometry">
                        <mxPoint x="1540" y="832" as="sourcePoint"/>
                        <mxPoint x="1540" y="864" as="targetPoint"/>
                    </mxGeometry>
                </mxCell>
                <mxCell id="McMhKuvaxXRwuFVOmlw5-16" value="" style="edgeStyle=none;orthogonalLoop=1;jettySize=auto;html=1;rounded=0;exitX=1;exitY=0.5;exitDx=0;exitDy=0;" parent="1" source="McMhKuvaxXRwuFVOmlw5-12" edge="1">
                    <mxGeometry width="100" relative="1" as="geometry">
                        <mxPoint x="1593" y="808" as="sourcePoint"/>
                        <mxPoint x="1540" y="650" as="targetPoint"/>
                        <Array as="points">
                            <mxPoint x="1640" y="789"/>
                            <mxPoint x="1640" y="650"/>
                        </Array>
                    </mxGeometry>
                </mxCell>
                <mxCell id="cvh67J1m96zl7CoJUk1C-1" value="ログイン状態が保持されていない場合（セッション切れ）もNoに進む" style="shape=callout;whiteSpace=wrap;html=1;perimeter=calloutPerimeter;fontSize=11;size=30;position=0.08;position2=0;fillColor=#fad9d5;strokeColor=#ae4132;" parent="1" vertex="1">
                    <mxGeometry x="420" y="150" width="130" height="90" as="geometry"/>
                </mxCell>
                <mxCell id="EPOYZKPjePexzVJCoGdz-1" value="トピック削除&lt;br&gt;（確認）" style="whiteSpace=wrap;html=1;" parent="1" vertex="1">
                    <mxGeometry x="440" y="418" width="120" height="40" as="geometry"/>
                </mxCell>
                <mxCell id="EPOYZKPjePexzVJCoGdz-2" value="" style="edgeStyle=none;orthogonalLoop=1;jettySize=auto;html=1;rounded=0;entryX=0.5;entryY=0;entryDx=0;entryDy=0;" parent="1" target="EPOYZKPjePexzVJCoGdz-1" edge="1">
                    <mxGeometry width="100" relative="1" as="geometry">
                        <mxPoint x="500" y="379" as="sourcePoint"/>
                        <mxPoint x="510.28999999999996" y="428" as="targetPoint"/>
                    </mxGeometry>
                </mxCell>
                <mxCell id="EPOYZKPjePexzVJCoGdz-3" value="" style="edgeStyle=none;orthogonalLoop=1;jettySize=auto;html=1;rounded=0;exitX=0.5;exitY=1;exitDx=0;exitDy=0;" parent="1" source="VPxTjBy3y0VzWbjlfLkC-46" edge="1">
                    <mxGeometry width="100" relative="1" as="geometry">
                        <mxPoint x="340" y="463.5" as="sourcePoint"/>
                        <mxPoint x="340" y="480" as="targetPoint"/>
                    </mxGeometry>
                </mxCell>
                <mxCell id="GdMsfuW8-BgsZ63KnPM7-1" value="確認画面の「修正する」ボタンクリックで&lt;br&gt;入力画面に戻れる" style="shape=callout;whiteSpace=wrap;html=1;perimeter=calloutPerimeter;fontSize=11;size=30;position=0.08;position2=0;fillColor=#fad9d5;strokeColor=#ae4132;" parent="1" vertex="1">
                    <mxGeometry x="1611" y="430" width="130" height="90" as="geometry"/>
                </mxCell>
            </root>
        </mxGraphModel>
    </diagram>
    <diagram name="管理側" id="UeQoWON23PhCCNMkhOQ_">
        <mxGraphModel dx="1156" dy="562" grid="1" gridSize="10" guides="1" tooltips="1" connect="1" arrows="1" fold="1" page="1" pageScale="1" pageWidth="1100" pageHeight="850" background="none" math="0" shadow="0">
            <root>
                <mxCell id="MrcFY5M8Q448FhQPLooo-0"/>
                <mxCell id="MrcFY5M8Q448FhQPLooo-1" parent="MrcFY5M8Q448FhQPLooo-0"/>
                <mxCell id="MrcFY5M8Q448FhQPLooo-2" value="&lt;font style=&quot;font-size: 20px;&quot;&gt;クローズドコンテンツの画面フロー（管理側）&lt;/font&gt;" style="text;html=1;align=left;verticalAlign=middle;resizable=0;points=[];autosize=1;strokeColor=none;fillColor=none;" parent="MrcFY5M8Q448FhQPLooo-1" vertex="1">
                    <mxGeometry x="70" y="40" width="440" height="40" as="geometry"/>
                </mxCell>
                <mxCell id="MrcFY5M8Q448FhQPLooo-4" value="（リンク元&lt;br&gt;どうする？）" style="whiteSpace=wrap;html=1;" parent="MrcFY5M8Q448FhQPLooo-1" vertex="1">
                    <mxGeometry x="160" y="120" width="120" height="40" as="geometry"/>
                </mxCell>
                <mxCell id="MrcFY5M8Q448FhQPLooo-5" value="ユーザー一覧" style="whiteSpace=wrap;html=1;" parent="MrcFY5M8Q448FhQPLooo-1" vertex="1">
                    <mxGeometry x="160" y="320" width="120" height="40" as="geometry"/>
                </mxCell>
                <mxCell id="MrcFY5M8Q448FhQPLooo-6" value="" style="edgeStyle=none;orthogonalLoop=1;jettySize=auto;html=1;rounded=0;exitX=0.5;exitY=1;exitDx=0;exitDy=0;entryX=0.5;entryY=0;entryDx=0;entryDy=0;" parent="MrcFY5M8Q448FhQPLooo-1" source="MrcFY5M8Q448FhQPLooo-4" target="MrcFY5M8Q448FhQPLooo-8" edge="1">
                    <mxGeometry width="100" relative="1" as="geometry">
                        <mxPoint x="220" y="205" as="sourcePoint"/>
                        <mxPoint x="220" y="200" as="targetPoint"/>
                    </mxGeometry>
                </mxCell>
                <mxCell id="MrcFY5M8Q448FhQPLooo-8" value="ログイン&lt;br&gt;している" style="rhombus;whiteSpace=wrap;html=1;fontSize=12;" parent="MrcFY5M8Q448FhQPLooo-1" vertex="1">
                    <mxGeometry x="180" y="200" width="80" height="80" as="geometry"/>
                </mxCell>
                <mxCell id="MrcFY5M8Q448FhQPLooo-9" value="" style="edgeStyle=none;orthogonalLoop=1;jettySize=auto;html=1;rounded=0;exitX=0.5;exitY=1;exitDx=0;exitDy=0;entryX=0.5;entryY=0;entryDx=0;entryDy=0;" parent="MrcFY5M8Q448FhQPLooo-1" source="MrcFY5M8Q448FhQPLooo-8" target="MrcFY5M8Q448FhQPLooo-5" edge="1">
                    <mxGeometry width="100" relative="1" as="geometry">
                        <mxPoint x="220" y="295" as="sourcePoint"/>
                        <mxPoint x="240" y="300" as="targetPoint"/>
                    </mxGeometry>
                </mxCell>
                <mxCell id="MrcFY5M8Q448FhQPLooo-11" value="" style="edgeStyle=none;orthogonalLoop=1;jettySize=auto;html=1;rounded=0;exitX=1;exitY=0.5;exitDx=0;exitDy=0;entryX=0.5;entryY=0;entryDx=0;entryDy=0;" parent="MrcFY5M8Q448FhQPLooo-1" source="MrcFY5M8Q448FhQPLooo-8" target="wjkIHBDZsJ45KQfHslHe-5" edge="1">
                    <mxGeometry width="100" relative="1" as="geometry">
                        <mxPoint x="379.55" y="265" as="sourcePoint"/>
                        <mxPoint x="600" y="320" as="targetPoint"/>
                        <Array as="points">
                            <mxPoint x="1020" y="240"/>
                        </Array>
                    </mxGeometry>
                </mxCell>
                <mxCell id="MrcFY5M8Q448FhQPLooo-12" value="&lt;font style=&quot;font-size: 10px;&quot;&gt;Yes&lt;/font&gt;" style="text;html=1;align=center;verticalAlign=middle;resizable=0;points=[];autosize=1;strokeColor=none;fillColor=none;fontSize=10;" parent="MrcFY5M8Q448FhQPLooo-1" vertex="1">
                    <mxGeometry x="180" y="280" width="40" height="30" as="geometry"/>
                </mxCell>
                <mxCell id="MrcFY5M8Q448FhQPLooo-13" value="&lt;font style=&quot;font-size: 10px;&quot;&gt;No&lt;/font&gt;" style="text;html=1;align=center;verticalAlign=middle;resizable=0;points=[];autosize=1;strokeColor=none;fillColor=none;fontSize=10;" parent="MrcFY5M8Q448FhQPLooo-1" vertex="1">
                    <mxGeometry x="260" y="210" width="40" height="30" as="geometry"/>
                </mxCell>
                <mxCell id="MrcFY5M8Q448FhQPLooo-16" value="" style="edgeStyle=none;orthogonalLoop=1;jettySize=auto;html=1;rounded=0;exitX=0.5;exitY=1;exitDx=0;exitDy=0;entryX=0.5;entryY=0;entryDx=0;entryDy=0;" parent="MrcFY5M8Q448FhQPLooo-1" source="MrcFY5M8Q448FhQPLooo-5" target="MrcFY5M8Q448FhQPLooo-17" edge="1">
                    <mxGeometry width="100" relative="1" as="geometry">
                        <mxPoint x="220" y="365" as="sourcePoint"/>
                        <mxPoint x="220" y="390" as="targetPoint"/>
                    </mxGeometry>
                </mxCell>
                <mxCell id="MrcFY5M8Q448FhQPLooo-17" value="ユーザー新規登録&lt;br&gt;（入力）" style="whiteSpace=wrap;html=1;" parent="MrcFY5M8Q448FhQPLooo-1" vertex="1">
                    <mxGeometry x="160" y="419" width="120" height="40" as="geometry"/>
                </mxCell>
                <mxCell id="MrcFY5M8Q448FhQPLooo-23" value="A" style="ellipse;whiteSpace=wrap;html=1;aspect=fixed;fontSize=16;" parent="MrcFY5M8Q448FhQPLooo-1" vertex="1">
                    <mxGeometry x="300" y="280" width="40" height="40" as="geometry"/>
                </mxCell>
                <mxCell id="MrcFY5M8Q448FhQPLooo-24" value="" style="edgeStyle=none;orthogonalLoop=1;jettySize=auto;html=1;rounded=0;exitX=0;exitY=0.5;exitDx=0;exitDy=0;" parent="MrcFY5M8Q448FhQPLooo-1" source="MrcFY5M8Q448FhQPLooo-23" edge="1">
                    <mxGeometry width="100" relative="1" as="geometry">
                        <mxPoint x="320" y="315" as="sourcePoint"/>
                        <mxPoint x="220" y="300" as="targetPoint"/>
                    </mxGeometry>
                </mxCell>
                <mxCell id="MrcFY5M8Q448FhQPLooo-40" value="ユーザー情報編集&lt;br&gt;（入力）" style="whiteSpace=wrap;html=1;" parent="MrcFY5M8Q448FhQPLooo-1" vertex="1">
                    <mxGeometry x="320" y="419" width="120" height="40" as="geometry"/>
                </mxCell>
                <mxCell id="MrcFY5M8Q448FhQPLooo-43" value="" style="edgeStyle=none;orthogonalLoop=1;jettySize=auto;html=1;rounded=0;entryX=0.5;entryY=0;entryDx=0;entryDy=0;exitX=0.5;exitY=1;exitDx=0;exitDy=0;" parent="MrcFY5M8Q448FhQPLooo-1" source="MrcFY5M8Q448FhQPLooo-17" target="_zdXIAwaWDHmr8m9UnS8-0" edge="1">
                    <mxGeometry width="100" relative="1" as="geometry">
                        <mxPoint x="200" y="460" as="sourcePoint"/>
                        <mxPoint x="220" y="499" as="targetPoint"/>
                    </mxGeometry>
                </mxCell>
                <mxCell id="MrcFY5M8Q448FhQPLooo-44" value="" style="edgeStyle=none;orthogonalLoop=1;jettySize=auto;html=1;rounded=0;exitX=0.5;exitY=1;exitDx=0;exitDy=0;" parent="MrcFY5M8Q448FhQPLooo-1" source="wjkIHBDZsJ45KQfHslHe-3" edge="1">
                    <mxGeometry width="100" relative="1" as="geometry">
                        <mxPoint x="380" y="539" as="sourcePoint"/>
                        <mxPoint x="380" y="560" as="targetPoint"/>
                    </mxGeometry>
                </mxCell>
                <mxCell id="MrcFY5M8Q448FhQPLooo-51" value="" style="edgeStyle=none;orthogonalLoop=1;jettySize=auto;html=1;rounded=0;entryX=0.5;entryY=0;entryDx=0;entryDy=0;" parent="MrcFY5M8Q448FhQPLooo-1" target="MqfL5O2e3toKkpMm9naG-4" edge="1">
                    <mxGeometry width="100" relative="1" as="geometry">
                        <mxPoint x="220" y="390" as="sourcePoint"/>
                        <mxPoint x="390.28999999999996" y="429" as="targetPoint"/>
                        <Array as="points">
                            <mxPoint x="700" y="390"/>
                        </Array>
                    </mxGeometry>
                </mxCell>
                <mxCell id="_zdXIAwaWDHmr8m9UnS8-0" value="ユーザー新規登録&lt;br&gt;（確認）" style="whiteSpace=wrap;html=1;" parent="MrcFY5M8Q448FhQPLooo-1" vertex="1">
                    <mxGeometry x="160" y="499" width="120" height="40" as="geometry"/>
                </mxCell>
                <mxCell id="wjkIHBDZsJ45KQfHslHe-0" value="A" style="ellipse;whiteSpace=wrap;html=1;aspect=fixed;fontSize=16;" parent="MrcFY5M8Q448FhQPLooo-1" vertex="1">
                    <mxGeometry x="200" y="579.5" width="40" height="40" as="geometry"/>
                </mxCell>
                <mxCell id="wjkIHBDZsJ45KQfHslHe-1" value="ユーザー一覧へ" style="text;html=1;align=center;verticalAlign=middle;resizable=0;points=[];autosize=1;strokeColor=none;fillColor=none;fontSize=10;" parent="MrcFY5M8Q448FhQPLooo-1" vertex="1">
                    <mxGeometry x="175" y="619.5" width="90" height="30" as="geometry"/>
                </mxCell>
                <mxCell id="wjkIHBDZsJ45KQfHslHe-2" value="" style="edgeStyle=none;orthogonalLoop=1;jettySize=auto;html=1;rounded=0;entryX=0.5;entryY=0;entryDx=0;entryDy=0;exitX=0.5;exitY=1;exitDx=0;exitDy=0;" parent="MrcFY5M8Q448FhQPLooo-1" source="_zdXIAwaWDHmr8m9UnS8-0" target="wjkIHBDZsJ45KQfHslHe-0" edge="1">
                    <mxGeometry width="100" relative="1" as="geometry">
                        <mxPoint x="220" y="539" as="sourcePoint"/>
                        <mxPoint x="220" y="579" as="targetPoint"/>
                    </mxGeometry>
                </mxCell>
                <mxCell id="wjkIHBDZsJ45KQfHslHe-3" value="ユーザー情報編集&lt;br&gt;（確認）" style="whiteSpace=wrap;html=1;" parent="MrcFY5M8Q448FhQPLooo-1" vertex="1">
                    <mxGeometry x="320" y="497" width="120" height="40" as="geometry"/>
                </mxCell>
                <mxCell id="wjkIHBDZsJ45KQfHslHe-4" value="" style="edgeStyle=none;orthogonalLoop=1;jettySize=auto;html=1;rounded=0;entryX=0.5;entryY=0;entryDx=0;entryDy=0;exitX=0.5;exitY=1;exitDx=0;exitDy=0;" parent="MrcFY5M8Q448FhQPLooo-1" source="MrcFY5M8Q448FhQPLooo-40" target="wjkIHBDZsJ45KQfHslHe-3" edge="1">
                    <mxGeometry width="100" relative="1" as="geometry">
                        <mxPoint x="360" y="470" as="sourcePoint"/>
                        <mxPoint x="390.28999999999996" y="507" as="targetPoint"/>
                    </mxGeometry>
                </mxCell>
                <mxCell id="wjkIHBDZsJ45KQfHslHe-5" value="ログイン画面" style="whiteSpace=wrap;html=1;" parent="MrcFY5M8Q448FhQPLooo-1" vertex="1">
                    <mxGeometry x="960" y="320" width="120" height="40" as="geometry"/>
                </mxCell>
                <mxCell id="wjkIHBDZsJ45KQfHslHe-6" value="ログイン&lt;br&gt;している" style="rhombus;whiteSpace=wrap;html=1;fontSize=12;" parent="MrcFY5M8Q448FhQPLooo-1" vertex="1">
                    <mxGeometry x="980" y="399" width="80" height="80" as="geometry"/>
                </mxCell>
                <mxCell id="wjkIHBDZsJ45KQfHslHe-7" value="" style="edgeStyle=none;orthogonalLoop=1;jettySize=auto;html=1;rounded=0;exitX=0.5;exitY=1;exitDx=0;exitDy=0;entryX=0.5;entryY=0;entryDx=0;entryDy=0;" parent="MrcFY5M8Q448FhQPLooo-1" source="wjkIHBDZsJ45KQfHslHe-5" target="wjkIHBDZsJ45KQfHslHe-6" edge="1">
                    <mxGeometry width="100" relative="1" as="geometry">
                        <mxPoint x="1009" y="370" as="sourcePoint"/>
                        <mxPoint x="1009" y="410" as="targetPoint"/>
                    </mxGeometry>
                </mxCell>
                <mxCell id="6Q5kpfv3Azwhe9yEsQXy-0" value="&lt;font style=&quot;font-size: 10px;&quot;&gt;Yes&lt;/font&gt;" style="text;html=1;align=center;verticalAlign=middle;resizable=0;points=[];autosize=1;strokeColor=none;fillColor=none;fontSize=10;" parent="MrcFY5M8Q448FhQPLooo-1" vertex="1">
                    <mxGeometry x="980" y="480" width="40" height="30" as="geometry"/>
                </mxCell>
                <mxCell id="6Q5kpfv3Azwhe9yEsQXy-1" value="&lt;font style=&quot;font-size: 10px;&quot;&gt;No&lt;/font&gt;" style="text;html=1;align=center;verticalAlign=middle;resizable=0;points=[];autosize=1;strokeColor=none;fillColor=none;fontSize=10;" parent="MrcFY5M8Q448FhQPLooo-1" vertex="1">
                    <mxGeometry x="1060" y="410" width="40" height="30" as="geometry"/>
                </mxCell>
                <mxCell id="6Q5kpfv3Azwhe9yEsQXy-2" value="ログイン画面" style="whiteSpace=wrap;html=1;" parent="MrcFY5M8Q448FhQPLooo-1" vertex="1">
                    <mxGeometry x="960" y="520" width="120" height="40" as="geometry"/>
                </mxCell>
                <mxCell id="6Q5kpfv3Azwhe9yEsQXy-3" value="" style="edgeStyle=none;orthogonalLoop=1;jettySize=auto;html=1;rounded=0;exitX=0.5;exitY=1;exitDx=0;exitDy=0;entryX=0.5;entryY=0;entryDx=0;entryDy=0;" parent="MrcFY5M8Q448FhQPLooo-1" source="6Q5kpfv3Azwhe9yEsQXy-2" target="rQFY0tdy_JAcjvzsSw73-0" edge="1">
                    <mxGeometry width="100" relative="1" as="geometry">
                        <mxPoint x="1009" y="570" as="sourcePoint"/>
                        <mxPoint x="1020" y="599" as="targetPoint"/>
                    </mxGeometry>
                </mxCell>
                <mxCell id="6Q5kpfv3Azwhe9yEsQXy-4" value="" style="edgeStyle=none;orthogonalLoop=1;jettySize=auto;html=1;rounded=0;exitX=0.5;exitY=1;exitDx=0;exitDy=0;entryX=0.5;entryY=0;entryDx=0;entryDy=0;" parent="MrcFY5M8Q448FhQPLooo-1" source="wjkIHBDZsJ45KQfHslHe-6" target="6Q5kpfv3Azwhe9yEsQXy-2" edge="1">
                    <mxGeometry width="100" relative="1" as="geometry">
                        <mxPoint x="1030" y="490" as="sourcePoint"/>
                        <mxPoint x="1030" y="529" as="targetPoint"/>
                    </mxGeometry>
                </mxCell>
                <mxCell id="6Q5kpfv3Azwhe9yEsQXy-5" value="" style="edgeStyle=none;orthogonalLoop=1;jettySize=auto;html=1;rounded=0;exitX=1;exitY=0.5;exitDx=0;exitDy=0;" parent="MrcFY5M8Q448FhQPLooo-1" source="wjkIHBDZsJ45KQfHslHe-6" edge="1">
                    <mxGeometry width="100" relative="1" as="geometry">
                        <mxPoint x="1090" y="456" as="sourcePoint"/>
                        <mxPoint x="1020" y="280" as="targetPoint"/>
                        <Array as="points">
                            <mxPoint x="1140" y="439"/>
                            <mxPoint x="1140" y="280"/>
                        </Array>
                    </mxGeometry>
                </mxCell>
                <mxCell id="rQFY0tdy_JAcjvzsSw73-0" value="A" style="ellipse;whiteSpace=wrap;html=1;aspect=fixed;fontSize=16;" parent="MrcFY5M8Q448FhQPLooo-1" vertex="1">
                    <mxGeometry x="1000" y="599.5" width="40" height="40" as="geometry"/>
                </mxCell>
                <mxCell id="rQFY0tdy_JAcjvzsSw73-1" value="ユーザー一覧へ" style="text;html=1;align=center;verticalAlign=middle;resizable=0;points=[];autosize=1;strokeColor=none;fillColor=none;fontSize=10;" parent="MrcFY5M8Q448FhQPLooo-1" vertex="1">
                    <mxGeometry x="975" y="639.5" width="90" height="30" as="geometry"/>
                </mxCell>
                <mxCell id="ZhKat5aekkRp3ECrepki-0" value="ログイン状態が保持されていない場合（セッション切れ）もNoに進む" style="shape=callout;whiteSpace=wrap;html=1;perimeter=calloutPerimeter;fontSize=11;size=30;position=0.08;position2=0;fillColor=#fad9d5;strokeColor=#ae4132;" parent="MrcFY5M8Q448FhQPLooo-1" vertex="1">
                    <mxGeometry x="310" y="150" width="130" height="90" as="geometry"/>
                </mxCell>
                <mxCell id="ehO6fKu-mByBtGbLXnDJ-0" value="確認画面の「修正する」ボタンクリックで&lt;br&gt;入力画面に戻れる" style="shape=callout;whiteSpace=wrap;html=1;perimeter=calloutPerimeter;fontSize=11;size=30;position=0.69;position2=1;fillColor=#fad9d5;strokeColor=#ae4132;base=20;" parent="MrcFY5M8Q448FhQPLooo-1" vertex="1">
                    <mxGeometry x="20" y="430" width="130" height="90" as="geometry"/>
                </mxCell>
                <mxCell id="MqfL5O2e3toKkpMm9naG-0" value="ユーザー削除&lt;br&gt;（確認）" style="whiteSpace=wrap;html=1;" parent="MrcFY5M8Q448FhQPLooo-1" vertex="1">
                    <mxGeometry x="480" y="419" width="120" height="40" as="geometry"/>
                </mxCell>
                <mxCell id="MqfL5O2e3toKkpMm9naG-2" value="" style="edgeStyle=none;orthogonalLoop=1;jettySize=auto;html=1;rounded=0;exitX=0.5;exitY=1;exitDx=0;exitDy=0;" parent="MrcFY5M8Q448FhQPLooo-1" source="MqfL5O2e3toKkpMm9naG-0" edge="1">
                    <mxGeometry width="100" relative="1" as="geometry">
                        <mxPoint x="520" y="470" as="sourcePoint"/>
                        <mxPoint x="220" y="560" as="targetPoint"/>
                        <Array as="points">
                            <mxPoint x="540" y="560"/>
                        </Array>
                    </mxGeometry>
                </mxCell>
                <mxCell id="MqfL5O2e3toKkpMm9naG-3" value="" style="edgeStyle=none;orthogonalLoop=1;jettySize=auto;html=1;rounded=0;entryX=0.5;entryY=0;entryDx=0;entryDy=0;" parent="MrcFY5M8Q448FhQPLooo-1" target="MrcFY5M8Q448FhQPLooo-40" edge="1">
                    <mxGeometry width="100" relative="1" as="geometry">
                        <mxPoint x="380" y="390" as="sourcePoint"/>
                        <mxPoint x="380" y="410" as="targetPoint"/>
                    </mxGeometry>
                </mxCell>
                <mxCell id="MqfL5O2e3toKkpMm9naG-4" value="トピック一覧" style="whiteSpace=wrap;html=1;" parent="MrcFY5M8Q448FhQPLooo-1" vertex="1">
                    <mxGeometry x="640" y="419" width="120" height="40" as="geometry"/>
                </mxCell>
                <mxCell id="MqfL5O2e3toKkpMm9naG-5" value="" style="edgeStyle=none;orthogonalLoop=1;jettySize=auto;html=1;rounded=0;exitX=0.5;exitY=1;exitDx=0;exitDy=0;entryX=0.5;entryY=0;entryDx=0;entryDy=0;" parent="MrcFY5M8Q448FhQPLooo-1" source="MqfL5O2e3toKkpMm9naG-6" target="MqfL5O2e3toKkpMm9naG-11" edge="1">
                    <mxGeometry width="100" relative="1" as="geometry">
                        <mxPoint x="700" y="539" as="sourcePoint"/>
                        <mxPoint x="700" y="560" as="targetPoint"/>
                    </mxGeometry>
                </mxCell>
                <mxCell id="MqfL5O2e3toKkpMm9naG-6" value="トピック編集" style="whiteSpace=wrap;html=1;" parent="MrcFY5M8Q448FhQPLooo-1" vertex="1">
                    <mxGeometry x="640" y="497" width="120" height="40" as="geometry"/>
                </mxCell>
                <mxCell id="MqfL5O2e3toKkpMm9naG-7" value="" style="edgeStyle=none;orthogonalLoop=1;jettySize=auto;html=1;rounded=0;entryX=0.5;entryY=0;entryDx=0;entryDy=0;exitX=0.5;exitY=1;exitDx=0;exitDy=0;" parent="MrcFY5M8Q448FhQPLooo-1" target="MqfL5O2e3toKkpMm9naG-6" edge="1">
                    <mxGeometry width="100" relative="1" as="geometry">
                        <mxPoint x="700" y="459" as="sourcePoint"/>
                        <mxPoint x="710.29" y="507" as="targetPoint"/>
                    </mxGeometry>
                </mxCell>
                <mxCell id="MqfL5O2e3toKkpMm9naG-8" value="トピック削除" style="whiteSpace=wrap;html=1;" parent="MrcFY5M8Q448FhQPLooo-1" vertex="1">
                    <mxGeometry x="800" y="497" width="120" height="40" as="geometry"/>
                </mxCell>
                <mxCell id="MqfL5O2e3toKkpMm9naG-9" value="" style="edgeStyle=none;orthogonalLoop=1;jettySize=auto;html=1;rounded=0;entryX=0.5;entryY=0;entryDx=0;entryDy=0;" parent="MrcFY5M8Q448FhQPLooo-1" target="MqfL5O2e3toKkpMm9naG-0" edge="1">
                    <mxGeometry width="100" relative="1" as="geometry">
                        <mxPoint x="540" y="390" as="sourcePoint"/>
                        <mxPoint x="549" y="425" as="targetPoint"/>
                    </mxGeometry>
                </mxCell>
                <mxCell id="MqfL5O2e3toKkpMm9naG-10" value="" style="edgeStyle=none;orthogonalLoop=1;jettySize=auto;html=1;rounded=0;entryX=0.5;entryY=0;entryDx=0;entryDy=0;" parent="MrcFY5M8Q448FhQPLooo-1" target="MqfL5O2e3toKkpMm9naG-8" edge="1">
                    <mxGeometry width="100" relative="1" as="geometry">
                        <mxPoint x="700" y="480" as="sourcePoint"/>
                        <mxPoint x="880" y="478" as="targetPoint"/>
                        <Array as="points">
                            <mxPoint x="860" y="480"/>
                        </Array>
                    </mxGeometry>
                </mxCell>
                <mxCell id="MqfL5O2e3toKkpMm9naG-11" value="B" style="ellipse;whiteSpace=wrap;html=1;aspect=fixed;fontSize=16;" parent="MrcFY5M8Q448FhQPLooo-1" vertex="1">
                    <mxGeometry x="680" y="579.5" width="40" height="40" as="geometry"/>
                </mxCell>
                <mxCell id="MqfL5O2e3toKkpMm9naG-12" value="トピック一覧へ" style="text;html=1;align=center;verticalAlign=middle;resizable=0;points=[];autosize=1;strokeColor=none;fillColor=none;fontSize=10;" parent="MrcFY5M8Q448FhQPLooo-1" vertex="1">
                    <mxGeometry x="655" y="619.5" width="90" height="30" as="geometry"/>
                </mxCell>
                <mxCell id="MqfL5O2e3toKkpMm9naG-14" value="" style="edgeStyle=none;orthogonalLoop=1;jettySize=auto;html=1;rounded=0;exitX=0.5;exitY=1;exitDx=0;exitDy=0;" parent="MrcFY5M8Q448FhQPLooo-1" source="MqfL5O2e3toKkpMm9naG-8" edge="1">
                    <mxGeometry width="100" relative="1" as="geometry">
                        <mxPoint x="850" y="539" as="sourcePoint"/>
                        <mxPoint x="700" y="560" as="targetPoint"/>
                        <Array as="points">
                            <mxPoint x="860" y="560"/>
                        </Array>
                    </mxGeometry>
                </mxCell>
                <mxCell id="MqfL5O2e3toKkpMm9naG-15" value="B" style="ellipse;whiteSpace=wrap;html=1;aspect=fixed;fontSize=16;" parent="MrcFY5M8Q448FhQPLooo-1" vertex="1">
                    <mxGeometry x="780" y="380" width="40" height="40" as="geometry"/>
                </mxCell>
                <mxCell id="MqfL5O2e3toKkpMm9naG-16" value="" style="edgeStyle=none;orthogonalLoop=1;jettySize=auto;html=1;rounded=0;exitX=0;exitY=0.5;exitDx=0;exitDy=0;" parent="MrcFY5M8Q448FhQPLooo-1" source="MqfL5O2e3toKkpMm9naG-15" edge="1">
                    <mxGeometry width="100" relative="1" as="geometry">
                        <mxPoint x="820" y="450" as="sourcePoint"/>
                        <mxPoint x="700" y="400" as="targetPoint"/>
                    </mxGeometry>
                </mxCell>
            </root>
        </mxGraphModel>
    </diagram>
</mxfile>